<svg width="162" height="44" viewBox="0 0 162 44" fill="none" xmlns="http://www.w3.org/2000/svg">
<g filter="url(#filter0_dii_1_3656)">
<path d="M2 9C2 4.58172 5.58172 1 10 1H152C156.418 1 160 4.58172 160 9V33C160 37.4183 156.418 41 152 41H10C5.58172 41 2 37.4183 2 33V9Z" fill="#1570EF"/>
<path d="M3 9C3 5.13401 6.13401 2 10 2H152C155.866 2 159 5.13401 159 9V33C159 36.866 155.866 40 152 40H10C6.134 40 3 36.866 3 33V9Z" stroke="url(#paint0_linear_1_3656)" stroke-width="2"/>
<path d="M31.1875 21.25C31.1875 21.7422 30.8008 22.0938 30.3438 22.0938H24.7188V27.7188C24.7188 28.2109 24.332 28.5977 23.875 28.5977C23.3828 28.5977 23.0312 28.2109 23.0312 27.7188V22.0938H17.4062C16.9141 22.0938 16.5625 21.7422 16.5625 21.2852C16.5625 20.793 16.9141 20.4062 17.4062 20.4062H23.0312V14.7812C23.0312 14.3242 23.3828 13.9727 23.875 13.9727C24.332 13.9727 24.7188 14.3242 24.7188 14.7812V20.4062H30.3438C30.8008 20.4062 31.1875 20.793 31.1875 21.25Z" fill="white"/>
<path d="M43.6506 26H42.358L46.0966 15.8182H47.3693L51.108 26H49.8153L46.7727 17.429H46.6932L43.6506 26ZM44.1278 22.0227H49.3381V23.1165H44.1278V22.0227ZM55.4183 26.1591C54.782 26.1591 54.2202 25.9983 53.733 25.6768C53.2457 25.352 52.8646 24.8946 52.5895 24.3047C52.3144 23.7114 52.1768 23.0104 52.1768 22.2017C52.1768 21.3996 52.3144 20.7036 52.5895 20.1136C52.8646 19.5237 53.2474 19.0679 53.7379 18.7464C54.2285 18.425 54.7952 18.2642 55.4382 18.2642C55.9354 18.2642 56.3281 18.3471 56.6165 18.5128C56.9081 18.6752 57.1302 18.8608 57.2827 19.0696C57.4384 19.2751 57.5594 19.4441 57.6456 19.5767H57.745V15.8182H58.9183V26H57.7848V24.8267H57.6456C57.5594 24.9659 57.4368 25.1416 57.2777 25.3537C57.1186 25.5625 56.8916 25.7498 56.5966 25.9155C56.3016 26.0779 55.9089 26.1591 55.4183 26.1591ZM55.5774 25.1051C56.0481 25.1051 56.4458 24.9825 56.7706 24.7372C57.0954 24.4886 57.3423 24.1456 57.5114 23.7081C57.6804 23.2673 57.7649 22.7585 57.7649 22.1818C57.7649 21.6117 57.6821 21.1129 57.5163 20.6854C57.3506 20.2545 57.1054 19.9197 56.7805 19.6811C56.4557 19.4392 56.0547 19.3182 55.5774 19.3182C55.0803 19.3182 54.666 19.4458 54.3345 19.701C54.0064 19.9529 53.7595 20.2959 53.5938 20.7301C53.4313 21.161 53.3501 21.6449 53.3501 22.1818C53.3501 22.7254 53.433 23.2192 53.5987 23.6634C53.7678 24.1042 54.0163 24.4555 54.3445 24.7173C54.6759 24.9759 55.0869 25.1051 55.5774 25.1051ZM64.1136 26.1591C63.4773 26.1591 62.9155 25.9983 62.4283 25.6768C61.9411 25.352 61.5599 24.8946 61.2848 24.3047C61.0097 23.7114 60.8722 23.0104 60.8722 22.2017C60.8722 21.3996 61.0097 20.7036 61.2848 20.1136C61.5599 19.5237 61.9427 19.0679 62.4332 18.7464C62.9238 18.425 63.4905 18.2642 64.1335 18.2642C64.6307 18.2642 65.0234 18.3471 65.3118 18.5128C65.6035 18.6752 65.8255 18.8608 65.978 19.0696C66.1338 19.2751 66.2547 19.4441 66.3409 19.5767H66.4403V15.8182H67.6136V26H66.4801V24.8267H66.3409C66.2547 24.9659 66.1321 25.1416 65.973 25.3537C65.8139 25.5625 65.5869 25.7498 65.2919 25.9155C64.9969 26.0779 64.6042 26.1591 64.1136 26.1591ZM64.2727 25.1051C64.7434 25.1051 65.1411 24.9825 65.4659 24.7372C65.7907 24.4886 66.0376 24.1456 66.2067 23.7081C66.3757 23.2673 66.4602 22.7585 66.4602 22.1818C66.4602 21.6117 66.3774 21.1129 66.2116 20.6854C66.0459 20.2545 65.8007 19.9197 65.4759 19.6811C65.151 19.4392 64.75 19.3182 64.2727 19.3182C63.7756 19.3182 63.3613 19.4458 63.0298 19.701C62.7017 19.9529 62.4548 20.2959 62.2891 20.7301C62.1267 21.161 62.0455 21.6449 62.0455 22.1818C62.0455 22.7254 62.1283 23.2192 62.294 23.6634C62.4631 24.1042 62.7116 24.4555 63.0398 24.7173C63.3712 24.9759 63.7822 25.1051 64.2727 25.1051ZM74.022 26V15.8182H77.4624C78.2578 15.8182 78.9107 15.9541 79.4212 16.2259C79.9316 16.4943 80.3094 16.8639 80.5547 17.3345C80.8 17.8052 80.9226 18.3404 80.9226 18.9403C80.9226 19.5402 80.8 20.0722 80.5547 20.5362C80.3094 21.0002 79.9332 21.3648 79.4261 21.63C78.919 21.8918 78.2711 22.0227 77.4822 22.0227H74.6982V20.9091H77.4425C77.986 20.9091 78.4235 20.8295 78.755 20.6705C79.0897 20.5114 79.3317 20.286 79.4808 19.9943C79.6333 19.6993 79.7095 19.348 79.7095 18.9403C79.7095 18.5327 79.6333 18.1764 79.4808 17.8714C79.3284 17.5665 79.0848 17.3312 78.75 17.1655C78.4152 16.9964 77.9728 16.9119 77.4226 16.9119H75.255V26H74.022ZM78.8146 21.4261L81.3203 26H79.8885L77.4226 21.4261H78.8146ZM85.9377 26.1591C85.2019 26.1591 84.5672 25.9967 84.0336 25.6719C83.5033 25.3438 83.0939 24.8864 82.8056 24.2997C82.5205 23.7098 82.378 23.0237 82.378 22.2415C82.378 21.4593 82.5205 20.7699 82.8056 20.1733C83.0939 19.5734 83.495 19.1061 84.0087 18.7713C84.5257 18.4332 85.129 18.2642 85.8184 18.2642C86.2161 18.2642 86.6088 18.3305 86.9966 18.4631C87.3844 18.5956 87.7374 18.8111 88.0556 19.1094C88.3738 19.4044 88.6273 19.7955 88.8162 20.2827C89.0051 20.7699 89.0996 21.3698 89.0996 22.0824V22.5795H83.2132V21.5653H87.9064C87.9064 21.1345 87.8203 20.75 87.6479 20.4119C87.4789 20.0739 87.2369 19.8071 86.9221 19.6115C86.6105 19.416 86.2426 19.3182 85.8184 19.3182C85.351 19.3182 84.9467 19.4342 84.6053 19.6662C84.2672 19.8949 84.007 20.1932 83.8248 20.5611C83.6425 20.929 83.5513 21.3234 83.5513 21.7443V22.4205C83.5513 22.9972 83.6507 23.486 83.8496 23.8871C84.0518 24.2848 84.3319 24.5881 84.6898 24.7969C85.0478 25.0024 85.4637 25.1051 85.9377 25.1051C86.2459 25.1051 86.5243 25.062 86.7729 24.9759C87.0248 24.8864 87.2419 24.7538 87.4242 24.5781C87.6065 24.3991 87.7473 24.1771 87.8468 23.9119L88.9803 24.2301C88.861 24.6146 88.6605 24.9527 88.3787 25.2443C88.097 25.5327 87.749 25.758 87.3347 25.9205C86.9204 26.0795 86.4547 26.1591 85.9377 26.1591ZM90.8844 28.8636V18.3636H92.0179V19.5767H92.1571C92.2433 19.4441 92.3626 19.2751 92.5151 19.0696C92.6709 18.8608 92.8929 18.6752 93.1813 18.5128C93.473 18.3471 93.8674 18.2642 94.3645 18.2642C95.0075 18.2642 95.5743 18.425 96.0648 18.7464C96.5553 19.0679 96.9382 19.5237 97.2132 20.1136C97.4883 20.7036 97.6259 21.3996 97.6259 22.2017C97.6259 23.0104 97.4883 23.7114 97.2132 24.3047C96.9382 24.8946 96.557 25.352 96.0698 25.6768C95.5826 25.9983 95.0208 26.1591 94.3844 26.1591C93.8939 26.1591 93.5011 26.0779 93.2061 25.9155C92.9112 25.7498 92.6841 25.5625 92.525 25.3537C92.3659 25.1416 92.2433 24.9659 92.1571 24.8267H92.0577V28.8636H90.8844ZM92.0378 22.1818C92.0378 22.7585 92.1223 23.2673 92.2914 23.7081C92.4604 24.1456 92.7073 24.4886 93.0321 24.7372C93.3569 24.9825 93.7547 25.1051 94.2253 25.1051C94.7159 25.1051 95.1252 24.9759 95.4533 24.7173C95.7847 24.4555 96.0333 24.1042 96.199 23.6634C96.3681 23.2192 96.4526 22.7254 96.4526 22.1818C96.4526 21.6449 96.3697 21.161 96.204 20.7301C96.0416 20.2959 95.7947 19.9529 95.4632 19.701C95.1351 19.4458 94.7225 19.3182 94.2253 19.3182C93.748 19.3182 93.347 19.4392 93.0222 19.6811C92.6974 19.9197 92.4521 20.2545 92.2864 20.6854C92.1207 21.1129 92.0378 21.6117 92.0378 22.1818ZM102.518 26.1591C101.829 26.1591 101.224 25.995 100.703 25.6669C100.186 25.3388 99.7819 24.8797 99.4902 24.2898C99.2019 23.6998 99.0577 23.0104 99.0577 22.2216C99.0577 21.4261 99.2019 20.7318 99.4902 20.1385C99.7819 19.5452 100.186 19.0845 100.703 18.7564C101.224 18.4283 101.829 18.2642 102.518 18.2642C103.207 18.2642 103.811 18.4283 104.328 18.7564C104.848 19.0845 105.252 19.5452 105.541 20.1385C105.832 20.7318 105.978 21.4261 105.978 22.2216C105.978 23.0104 105.832 23.6998 105.541 24.2898C105.252 24.8797 104.848 25.3388 104.328 25.6669C103.811 25.995 103.207 26.1591 102.518 26.1591ZM102.518 25.1051C103.042 25.1051 103.472 24.9709 103.811 24.7024C104.149 24.4339 104.399 24.081 104.561 23.6435C104.724 23.206 104.805 22.732 104.805 22.2216C104.805 21.7112 104.724 21.2356 104.561 20.7947C104.399 20.3539 104.149 19.9976 103.811 19.7259C103.472 19.4541 103.042 19.3182 102.518 19.3182C101.994 19.3182 101.563 19.4541 101.225 19.7259C100.887 19.9976 100.637 20.3539 100.475 20.7947C100.312 21.2356 100.231 21.7112 100.231 22.2216C100.231 22.732 100.312 23.206 100.475 23.6435C100.637 24.081 100.887 24.4339 101.225 24.7024C101.563 24.9709 101.994 25.1051 102.518 25.1051ZM113.178 20.0739L112.124 20.3722C112.058 20.1965 111.96 20.0258 111.831 19.8601C111.705 19.6911 111.533 19.5518 111.314 19.4425C111.095 19.3331 110.815 19.2784 110.474 19.2784C110.006 19.2784 109.617 19.3861 109.305 19.6016C108.997 19.8137 108.843 20.0838 108.843 20.4119C108.843 20.7036 108.949 20.9339 109.161 21.103C109.373 21.272 109.705 21.4129 110.156 21.5256L111.289 21.804C111.972 21.9697 112.481 22.2232 112.815 22.5646C113.15 22.9027 113.317 23.3385 113.317 23.8722C113.317 24.3097 113.192 24.7008 112.94 25.0455C112.691 25.3902 112.343 25.6619 111.896 25.8608C111.448 26.0597 110.928 26.1591 110.335 26.1591C109.556 26.1591 108.911 25.9901 108.401 25.652C107.89 25.3139 107.567 24.8201 107.431 24.1705L108.545 23.892C108.651 24.303 108.851 24.6113 109.146 24.8168C109.445 25.0223 109.834 25.125 110.315 25.125C110.862 25.125 111.296 25.009 111.617 24.777C111.942 24.5417 112.104 24.2599 112.104 23.9318C112.104 23.6667 112.012 23.4446 111.826 23.2656C111.64 23.0833 111.355 22.9474 110.971 22.858L109.698 22.5597C108.999 22.3939 108.485 22.1371 108.157 21.7891C107.832 21.4377 107.67 20.9986 107.67 20.4716C107.67 20.0407 107.791 19.6596 108.033 19.3281C108.278 18.9967 108.611 18.7365 109.032 18.5476C109.456 18.3587 109.937 18.2642 110.474 18.2642C111.229 18.2642 111.823 18.4299 112.254 18.7614C112.688 19.0928 112.996 19.5303 113.178 20.0739ZM115.084 26V18.3636H116.257V26H115.084ZM115.68 17.0909C115.452 17.0909 115.254 17.013 115.089 16.8572C114.926 16.7015 114.845 16.5142 114.845 16.2955C114.845 16.0767 114.926 15.8894 115.089 15.7337C115.254 15.5779 115.452 15.5 115.68 15.5C115.909 15.5 116.104 15.5779 116.267 15.7337C116.433 15.8894 116.515 16.0767 116.515 16.2955C116.515 16.5142 116.433 16.7015 116.267 16.8572C116.104 17.013 115.909 17.0909 115.68 17.0909ZM121.727 18.3636V19.358H117.77V18.3636H121.727ZM118.923 16.5341H120.096V23.8125C120.096 24.1439 120.144 24.3925 120.24 24.5582C120.34 24.7206 120.466 24.83 120.618 24.8864C120.774 24.9394 120.938 24.9659 121.11 24.9659C121.24 24.9659 121.346 24.9593 121.429 24.946C121.511 24.9295 121.578 24.9162 121.627 24.9062L121.866 25.9602C121.787 25.9901 121.676 26.0199 121.533 26.0497C121.391 26.0829 121.21 26.0994 120.991 26.0994C120.66 26.0994 120.335 26.0282 120.017 25.8857C119.702 25.7431 119.44 25.526 119.231 25.2344C119.026 24.9427 118.923 24.5748 118.923 24.1307V16.5341ZM126.512 26.1591C125.823 26.1591 125.218 25.995 124.697 25.6669C124.18 25.3388 123.776 24.8797 123.484 24.2898C123.196 23.6998 123.052 23.0104 123.052 22.2216C123.052 21.4261 123.196 20.7318 123.484 20.1385C123.776 19.5452 124.18 19.0845 124.697 18.7564C125.218 18.4283 125.823 18.2642 126.512 18.2642C127.201 18.2642 127.805 18.4283 128.322 18.7564C128.842 19.0845 129.246 19.5452 129.535 20.1385C129.826 20.7318 129.972 21.4261 129.972 22.2216C129.972 23.0104 129.826 23.6998 129.535 24.2898C129.246 24.8797 128.842 25.3388 128.322 25.6669C127.805 25.995 127.201 26.1591 126.512 26.1591ZM126.512 25.1051C127.036 25.1051 127.467 24.9709 127.805 24.7024C128.143 24.4339 128.393 24.081 128.555 23.6435C128.718 23.206 128.799 22.732 128.799 22.2216C128.799 21.7112 128.718 21.2356 128.555 20.7947C128.393 20.3539 128.143 19.9976 127.805 19.7259C127.467 19.4541 127.036 19.3182 126.512 19.3182C125.988 19.3182 125.558 19.4541 125.219 19.7259C124.881 19.9976 124.631 20.3539 124.469 20.7947C124.306 21.2356 124.225 21.7112 124.225 22.2216C124.225 22.732 124.306 23.206 124.469 23.6435C124.631 24.081 124.881 24.4339 125.219 24.7024C125.558 24.9709 125.988 25.1051 126.512 25.1051ZM131.763 26V18.3636H132.897V19.517H132.976C133.116 19.1392 133.367 18.8326 133.732 18.5973C134.097 18.362 134.508 18.2443 134.965 18.2443C135.051 18.2443 135.159 18.246 135.288 18.2493C135.417 18.2526 135.515 18.2576 135.581 18.2642V19.4574C135.542 19.4474 135.451 19.4325 135.308 19.4126C135.169 19.3894 135.021 19.3778 134.866 19.3778C134.494 19.3778 134.163 19.4557 133.871 19.6115C133.583 19.764 133.354 19.9761 133.185 20.2479C133.019 20.5163 132.937 20.8229 132.937 21.1676V26H131.763ZM137.96 28.8636C137.762 28.8636 137.584 28.8471 137.428 28.8139C137.273 28.7841 137.165 28.7543 137.105 28.7244L137.404 27.6903C137.689 27.7633 137.941 27.7898 138.159 27.7699C138.378 27.75 138.572 27.6522 138.741 27.4766C138.913 27.3042 139.071 27.0241 139.213 26.6364L139.432 26.0398L136.608 18.3636H137.881L139.989 24.4489H140.068L142.176 18.3636H143.449L140.208 27.1136C140.062 27.508 139.881 27.8345 139.666 28.093C139.45 28.3549 139.2 28.5488 138.915 28.6747C138.633 28.8007 138.315 28.8636 137.96 28.8636Z" fill="white"/>
</g>
<defs>
<filter id="filter0_dii_1_3656" x="0" y="0" width="162" height="44" filterUnits="userSpaceOnUse" color-interpolation-filters="sRGB">
<feFlood flood-opacity="0" result="BackgroundImageFix"/>
<feColorMatrix in="SourceAlpha" type="matrix" values="0 0 0 0 0 0 0 0 0 0 0 0 0 0 0 0 0 0 127 0" result="hardAlpha"/>
<feOffset dy="1"/>
<feGaussianBlur stdDeviation="1"/>
<feComposite in2="hardAlpha" operator="out"/>
<feColorMatrix type="matrix" values="0 0 0 0 0.0392157 0 0 0 0 0.0496732 0 0 0 0 0.0705882 0 0 0 0.05 0"/>
<feBlend mode="normal" in2="BackgroundImageFix" result="effect1_dropShadow_1_3656"/>
<feBlend mode="normal" in="SourceGraphic" in2="effect1_dropShadow_1_3656" result="shape"/>
<feColorMatrix in="SourceAlpha" type="matrix" values="0 0 0 0 0 0 0 0 0 0 0 0 0 0 0 0 0 0 127 0" result="hardAlpha"/>
<feOffset dy="-2"/>
<feComposite in2="hardAlpha" operator="arithmetic" k2="-1" k3="1"/>
<feColorMatrix type="matrix" values="0 0 0 0 0.0392157 0 0 0 0 0.0496732 0 0 0 0 0.0705882 0 0 0 0.05 0"/>
<feBlend mode="normal" in2="shape" result="effect2_innerShadow_1_3656"/>
<feColorMatrix in="SourceAlpha" type="matrix" values="0 0 0 0 0 0 0 0 0 0 0 0 0 0 0 0 0 0 127 0" result="hardAlpha"/>
<feMorphology radius="1" operator="erode" in="SourceAlpha" result="effect3_innerShadow_1_3656"/>
<feOffset/>
<feComposite in2="hardAlpha" operator="arithmetic" k2="-1" k3="1"/>
<feColorMatrix type="matrix" values="0 0 0 0 0.0392157 0 0 0 0 0.0496732 0 0 0 0 0.0705882 0 0 0 0.18 0"/>
<feBlend mode="normal" in2="effect2_innerShadow_1_3656" result="effect3_innerShadow_1_3656"/>
</filter>
<linearGradient id="paint0_linear_1_3656" x1="81" y1="1" x2="81" y2="41" gradientUnits="userSpaceOnUse">
<stop stop-color="white" stop-opacity="0.12"/>
<stop offset="1" stop-color="white" stop-opacity="0"/>
</linearGradient>
</defs>
</svg>
