<svg width="131" height="44" viewBox="0 0 131 44" fill="none" xmlns="http://www.w3.org/2000/svg">
<g filter="url(#filter0_dii_1_3650)">
<path d="M2 9C2 4.58172 5.58172 1 10 1H121C125.418 1 129 4.58172 129 9V33C129 37.4183 125.418 41 121 41H10C5.58172 41 2 37.4183 2 33V9Z" fill="white"/>
<path d="M2.5 9C2.5 4.85786 5.85786 1.5 10 1.5H121C125.142 1.5 128.5 4.85786 128.5 9V33C128.5 37.1421 125.142 40.5 121 40.5H10C5.85786 40.5 2.5 37.1421 2.5 33V9Z" stroke="#D5D7DA"/>
<path d="M31.9609 22.4102C32.418 22.5508 32.6641 23.0078 32.5234 23.4648C31.5391 26.8047 28.4453 29.125 24.9648 29.125C22.1875 29.125 19.6211 27.6133 18.2148 25.2578V28.8438C18.2148 29.3359 17.8633 29.6875 17.3711 29.6875C16.9141 29.6875 16.5273 29.3359 16.5273 28.8438V23.2188C16.5273 22.7617 16.9141 22.375 17.3711 22.375H22.9961C23.4883 22.375 23.8398 22.7617 23.8398 23.2188C23.8398 23.7109 23.4531 24.0625 22.9961 24.0625H19.4453C20.5 26.1016 22.6094 27.4375 24.9648 27.4375C27.707 27.4375 30.168 25.6094 30.9062 22.9727C31.0469 22.5156 31.5039 22.2695 31.9609 22.4102ZM32.5938 12.8125C33.0508 12.8125 33.4375 13.1992 33.4375 13.6562V19.2812C33.4375 19.7734 33.0508 20.125 32.5938 20.125H26.9688C26.4766 20.125 26.125 19.7734 26.125 19.2812C26.125 18.8242 26.4766 18.4375 26.9688 18.4375H30.4844C29.4297 16.4336 27.3203 15.0625 25 15.0625C22.2578 15.0625 19.7969 16.9258 19.0234 19.5273C18.918 19.9844 18.4609 20.2305 18.0039 20.0898C17.5469 19.9844 17.3008 19.4922 17.4062 19.0703C18.3906 15.7305 21.5195 13.375 25 13.375C27.7773 13.375 30.3438 14.9219 31.75 17.2773V13.6562C31.75 13.1992 32.1016 12.8125 32.5938 12.8125Z" fill="#414651"/>
<path d="M43.233 26V15.8182H46.6733C47.4688 15.8182 48.1217 15.9541 48.6321 16.2259C49.1425 16.4943 49.5204 16.8639 49.7656 17.3345C50.0109 17.8052 50.1335 18.3404 50.1335 18.9403C50.1335 19.5402 50.0109 20.0722 49.7656 20.5362C49.5204 21.0002 49.1442 21.3648 48.6371 21.63C48.13 21.8918 47.482 22.0227 46.6932 22.0227H43.9091V20.9091H46.6534C47.197 20.9091 47.6345 20.8295 47.9659 20.6705C48.3007 20.5114 48.5426 20.286 48.6918 19.9943C48.8442 19.6993 48.9205 19.348 48.9205 18.9403C48.9205 18.5327 48.8442 18.1764 48.6918 17.8714C48.5393 17.5665 48.2957 17.3312 47.9609 17.1655C47.6262 16.9964 47.1837 16.9119 46.6335 16.9119H44.4659V26H43.233ZM48.0256 21.4261L50.5312 26H49.0994L46.6335 21.4261H48.0256ZM55.1486 26.1591C54.4128 26.1591 53.7781 25.9967 53.2445 25.6719C52.7142 25.3438 52.3049 24.8864 52.0165 24.2997C51.7315 23.7098 51.589 23.0237 51.589 22.2415C51.589 21.4593 51.7315 20.7699 52.0165 20.1733C52.3049 19.5734 52.7059 19.1061 53.2196 18.7713C53.7367 18.4332 54.3399 18.2642 55.0293 18.2642C55.427 18.2642 55.8198 18.3305 56.2076 18.4631C56.5953 18.5956 56.9483 18.8111 57.2665 19.1094C57.5847 19.4044 57.8382 19.7955 58.0272 20.2827C58.2161 20.7699 58.3105 21.3698 58.3105 22.0824V22.5795H52.4242V21.5653H57.1174C57.1174 21.1345 57.0312 20.75 56.8588 20.4119C56.6898 20.0739 56.4479 19.8071 56.133 19.6115C55.8214 19.416 55.4535 19.3182 55.0293 19.3182C54.562 19.3182 54.1576 19.4342 53.8162 19.6662C53.4782 19.8949 53.218 20.1932 53.0357 20.5611C52.8534 20.929 52.7623 21.3234 52.7623 21.7443V22.4205C52.7623 22.9972 52.8617 23.486 53.0605 23.8871C53.2627 24.2848 53.5428 24.5881 53.9007 24.7969C54.2587 25.0024 54.6747 25.1051 55.1486 25.1051C55.4569 25.1051 55.7353 25.062 55.9838 24.9759C56.2357 24.8864 56.4528 24.7538 56.6351 24.5781C56.8174 24.3991 56.9583 24.1771 57.0577 23.9119L58.1912 24.2301C58.0719 24.6146 57.8714 24.9527 57.5897 25.2443C57.3079 25.5327 56.9599 25.758 56.5456 25.9205C56.1313 26.0795 55.6657 26.1591 55.1486 26.1591ZM63.4959 18.3636V19.358H59.3794V18.3636H63.4959ZM60.6124 26V17.3097C60.6124 16.8722 60.7151 16.5076 60.9206 16.2159C61.1261 15.9242 61.3929 15.7055 61.7211 15.5597C62.0492 15.4138 62.3955 15.3409 62.7601 15.3409C63.0485 15.3409 63.2838 15.3641 63.4661 15.4105C63.6484 15.4569 63.7843 15.5 63.8738 15.5398L63.5357 16.554C63.476 16.5341 63.3932 16.5092 63.2871 16.4794C63.1844 16.4496 63.0485 16.4347 62.8794 16.4347C62.4917 16.4347 62.2116 16.5324 62.0392 16.728C61.8702 16.9235 61.7857 17.2102 61.7857 17.5881V26H60.6124ZM65.1403 26V18.3636H66.2738V19.517H66.3533C66.4925 19.1392 66.7444 18.8326 67.109 18.5973C67.4736 18.362 67.8846 18.2443 68.342 18.2443C68.4281 18.2443 68.5359 18.246 68.6651 18.2493C68.7944 18.2526 68.8922 18.2576 68.9585 18.2642V19.4574C68.9187 19.4474 68.8275 19.4325 68.685 19.4126C68.5458 19.3894 68.3983 19.3778 68.2425 19.3778C67.8713 19.3778 67.5399 19.4557 67.2482 19.6115C66.9599 19.764 66.7312 19.9761 66.5621 20.2479C66.3964 20.5163 66.3136 20.8229 66.3136 21.1676V26H65.1403ZM73.3185 26.1591C72.5827 26.1591 71.948 25.9967 71.4144 25.6719C70.8841 25.3438 70.4748 24.8864 70.1864 24.2997C69.9014 23.7098 69.7589 23.0237 69.7589 22.2415C69.7589 21.4593 69.9014 20.7699 70.1864 20.1733C70.4748 19.5734 70.8758 19.1061 71.3896 18.7713C71.9066 18.4332 72.5098 18.2642 73.1992 18.2642C73.5969 18.2642 73.9897 18.3305 74.3775 18.4631C74.7653 18.5956 75.1183 18.8111 75.4364 19.1094C75.7546 19.4044 76.0082 19.7955 76.1971 20.2827C76.386 20.7699 76.4805 21.3698 76.4805 22.0824V22.5795H70.5941V21.5653H75.2873C75.2873 21.1345 75.2011 20.75 75.0288 20.4119C74.8597 20.0739 74.6178 19.8071 74.3029 19.6115C73.9914 19.416 73.6235 19.3182 73.1992 19.3182C72.7319 19.3182 72.3275 19.4342 71.9862 19.6662C71.6481 19.8949 71.3879 20.1932 71.2056 20.5611C71.0233 20.929 70.9322 21.3234 70.9322 21.7443V22.4205C70.9322 22.9972 71.0316 23.486 71.2305 23.8871C71.4326 24.2848 71.7127 24.5881 72.0707 24.7969C72.4286 25.0024 72.8446 25.1051 73.3185 25.1051C73.6268 25.1051 73.9052 25.062 74.1538 24.9759C74.4057 24.8864 74.6228 24.7538 74.805 24.5781C74.9873 24.3991 75.1282 24.1771 75.2276 23.9119L76.3612 24.2301C76.2418 24.6146 76.0413 24.9527 75.7596 25.2443C75.4779 25.5327 75.1299 25.758 74.7156 25.9205C74.3013 26.0795 73.8356 26.1591 73.3185 26.1591ZM83.6744 20.0739L82.6204 20.3722C82.5541 20.1965 82.4563 20.0258 82.3271 19.8601C82.2011 19.6911 82.0288 19.5518 81.81 19.4425C81.5913 19.3331 81.3112 19.2784 80.9698 19.2784C80.5025 19.2784 80.113 19.3861 79.8015 19.6016C79.4933 19.8137 79.3391 20.0838 79.3391 20.4119C79.3391 20.7036 79.4452 20.9339 79.6573 21.103C79.8694 21.272 80.2009 21.4129 80.6516 21.5256L81.7852 21.804C82.4679 21.9697 82.9767 22.2232 83.3114 22.5646C83.6462 22.9027 83.8136 23.3385 83.8136 23.8722C83.8136 24.3097 83.6876 24.7008 83.4357 25.0455C83.1871 25.3902 82.8391 25.6619 82.3917 25.8608C81.9442 26.0597 81.4239 26.1591 80.8306 26.1591C80.0517 26.1591 79.4071 25.9901 78.8967 25.652C78.3862 25.3139 78.0631 24.8201 77.9272 24.1705L79.0408 23.892C79.1469 24.303 79.3474 24.6113 79.6424 24.8168C79.9407 25.0223 80.3301 25.125 80.8107 25.125C81.3576 25.125 81.7918 25.009 82.1133 24.777C82.4381 24.5417 82.6005 24.2599 82.6005 23.9318C82.6005 23.6667 82.5077 23.4446 82.3221 23.2656C82.1365 23.0833 81.8514 22.9474 81.467 22.858L80.1942 22.5597C79.4949 22.3939 78.9812 22.1371 78.6531 21.7891C78.3282 21.4377 78.1658 20.9986 78.1658 20.4716C78.1658 20.0407 78.2868 19.6596 78.5288 19.3281C78.774 18.9967 79.1071 18.7365 79.5281 18.5476C79.9523 18.3587 80.4329 18.2642 80.9698 18.2642C81.7255 18.2642 82.3188 18.4299 82.7496 18.7614C83.1838 19.0928 83.4921 19.5303 83.6744 20.0739ZM86.753 21.4062V26H85.5797V15.8182H86.753V19.5568H86.8525C87.0314 19.1624 87.2999 18.8492 87.6578 18.6172C88.0191 18.3819 88.4997 18.2642 89.0996 18.2642C89.62 18.2642 90.0757 18.3686 90.4668 18.5774C90.8579 18.7829 91.1612 19.0994 91.3766 19.527C91.5953 19.9512 91.7047 20.4915 91.7047 21.1477V26H90.5314V21.2273C90.5314 20.6207 90.374 20.1518 90.0591 19.8203C89.7476 19.4856 89.315 19.3182 88.7615 19.3182C88.3771 19.3182 88.0324 19.3994 87.7275 19.5618C87.4258 19.7242 87.1872 19.9612 87.0115 20.2727C86.8392 20.5843 86.753 20.9621 86.753 21.4062ZM98.3654 26H97.0728L100.811 15.8182H102.084L105.823 26H104.53L101.488 17.429H101.408L98.3654 26ZM98.8427 22.0227H104.053V23.1165H98.8427V22.0227ZM108.423 15.8182V26H107.25V15.8182H108.423ZM111.745 15.8182V26H110.572V15.8182H111.745Z" fill="#414651"/>
</g>
<defs>
<filter id="filter0_dii_1_3650" x="0" y="0" width="131" height="44" filterUnits="userSpaceOnUse" color-interpolation-filters="sRGB">
<feFlood flood-opacity="0" result="BackgroundImageFix"/>
<feColorMatrix in="SourceAlpha" type="matrix" values="0 0 0 0 0 0 0 0 0 0 0 0 0 0 0 0 0 0 127 0" result="hardAlpha"/>
<feOffset dy="1"/>
<feGaussianBlur stdDeviation="1"/>
<feComposite in2="hardAlpha" operator="out"/>
<feColorMatrix type="matrix" values="0 0 0 0 0.0392157 0 0 0 0 0.0496732 0 0 0 0 0.0705882 0 0 0 0.05 0"/>
<feBlend mode="normal" in2="BackgroundImageFix" result="effect1_dropShadow_1_3650"/>
<feBlend mode="normal" in="SourceGraphic" in2="effect1_dropShadow_1_3650" result="shape"/>
<feColorMatrix in="SourceAlpha" type="matrix" values="0 0 0 0 0 0 0 0 0 0 0 0 0 0 0 0 0 0 127 0" result="hardAlpha"/>
<feOffset dy="-2"/>
<feComposite in2="hardAlpha" operator="arithmetic" k2="-1" k3="1"/>
<feColorMatrix type="matrix" values="0 0 0 0 0.0392157 0 0 0 0 0.0496732 0 0 0 0 0.0705882 0 0 0 0.05 0"/>
<feBlend mode="normal" in2="shape" result="effect2_innerShadow_1_3650"/>
<feColorMatrix in="SourceAlpha" type="matrix" values="0 0 0 0 0 0 0 0 0 0 0 0 0 0 0 0 0 0 127 0" result="hardAlpha"/>
<feMorphology radius="1" operator="erode" in="SourceAlpha" result="effect3_innerShadow_1_3650"/>
<feOffset/>
<feComposite in2="hardAlpha" operator="arithmetic" k2="-1" k3="1"/>
<feColorMatrix type="matrix" values="0 0 0 0 0.0392157 0 0 0 0 0.0496732 0 0 0 0 0.0705882 0 0 0 0.18 0"/>
<feBlend mode="normal" in2="effect2_innerShadow_1_3650" result="effect3_innerShadow_1_3650"/>
</filter>
</defs>
</svg>
