<svg width="448" height="60" viewBox="0 0 448 60" fill="none" xmlns="http://www.w3.org/2000/svg">
<rect x="1" y="1.41589" width="446" height="57.5859" rx="8" fill="white"/>
<rect x="1" y="1.41589" width="446" height="57.5859" rx="8" stroke="#D8DAE5" stroke-linecap="round" stroke-linejoin="round"/>
<path d="M156.125 26.125C156.125 25.4609 156.672 24.875 157.375 24.875C158.039 24.875 158.625 25.4609 158.625 26.125C158.625 26.8281 158.039 27.375 157.375 27.375C156.672 27.375 156.125 26.8281 156.125 26.125ZM156.125 34.25C155.734 34.25 155.383 34.25 155.031 34.1719L153.938 35.2266C153.781 35.4219 153.547 35.5 153.312 35.5H151.75V37.0625C151.75 37.6094 151.32 38 150.812 38H149.25V39.5625C149.25 40.1094 148.82 40.5 148.312 40.5H143.938C143.391 40.5 143 40.1094 143 39.5625V35.1875C143 34.9531 143.078 34.7188 143.273 34.5234L149.328 28.4688C149.25 28.1172 149.25 27.7656 149.25 27.375C149.25 23.5859 152.297 20.5 156.125 20.5C159.914 20.5 163 23.5859 163 27.375C163 31.2031 159.914 34.25 156.125 34.25ZM156.125 32.375C158.859 32.375 161.125 30.1484 161.125 27.375C161.125 24.6406 158.859 22.375 156.125 22.375C153.352 22.375 151.125 24.6406 151.125 27.375C151.125 27.6484 151.125 27.9219 151.164 28.1953L151.32 29.1328L144.836 35.5781V38.625H147.336V36.125H149.836V33.625H152.922L154.367 32.1797L155.305 32.3359C155.578 32.375 155.852 32.375 156.125 32.375Z" fill="#171717"/>
<path d="M188.472 27.7714C188.419 27.2752 188.195 26.8888 187.801 26.6123C187.411 26.3358 186.903 26.1975 186.278 26.1975C185.839 26.1975 185.462 26.2638 185.148 26.3964C184.833 26.5289 184.593 26.7089 184.426 26.9361C184.259 27.1634 184.174 27.4229 184.17 27.7145C184.17 27.957 184.225 28.1672 184.335 28.3452C184.449 28.5233 184.602 28.6748 184.795 28.7998C184.989 28.921 185.203 29.0233 185.438 29.1066C185.672 29.1899 185.909 29.26 186.148 29.3168L187.239 29.5895C187.678 29.6918 188.1 29.8301 188.506 30.0043C188.915 30.1786 189.28 30.3983 189.602 30.6634C189.928 30.9286 190.186 31.2486 190.375 31.6236C190.564 31.9986 190.659 32.438 190.659 32.9418C190.659 33.6236 190.485 34.224 190.136 34.743C189.788 35.2581 189.284 35.6615 188.625 35.9532C187.97 36.2411 187.176 36.385 186.244 36.385C185.339 36.385 184.553 36.2448 183.886 35.9645C183.223 35.6842 182.705 35.2752 182.33 34.7373C181.958 34.1994 181.758 33.5441 181.727 32.7714H183.801C183.831 33.1767 183.956 33.5138 184.176 33.7827C184.396 34.0517 184.682 34.2524 185.034 34.385C185.39 34.5176 185.788 34.5839 186.227 34.5839C186.686 34.5839 187.087 34.5157 187.432 34.3793C187.78 34.2392 188.053 34.046 188.25 33.7998C188.447 33.5498 188.547 33.2581 188.551 32.9248C188.547 32.6217 188.458 32.3717 188.284 32.1748C188.11 31.974 187.866 31.8073 187.551 31.6748C187.241 31.5384 186.877 31.4172 186.46 31.3111L185.136 30.9702C184.178 30.724 183.42 30.3509 182.864 29.8509C182.311 29.3471 182.034 28.6786 182.034 27.8452C182.034 27.1596 182.22 26.5592 182.591 26.0441C182.966 25.5289 183.475 25.1293 184.119 24.8452C184.763 24.5573 185.492 24.4134 186.307 24.4134C187.133 24.4134 187.856 24.5573 188.477 24.8452C189.102 25.1293 189.593 25.5251 189.949 26.0327C190.305 26.5365 190.489 27.1161 190.5 27.7714H188.472ZM192.447 36.2089V27.4816H194.504V36.2089H192.447ZM193.482 26.243C193.156 26.243 192.875 26.135 192.641 25.9191C192.406 25.6994 192.288 25.4361 192.288 25.1293C192.288 24.8187 192.406 24.5555 192.641 24.3395C192.875 24.1198 193.156 24.01 193.482 24.01C193.811 24.01 194.091 24.1198 194.322 24.3395C194.557 24.5555 194.675 24.8187 194.675 25.1293C194.675 25.4361 194.557 25.6994 194.322 25.9191C194.091 26.135 193.811 26.243 193.482 26.243ZM200.415 39.6634C199.676 39.6634 199.042 39.563 198.511 39.3623C197.981 39.1653 197.555 38.9002 197.233 38.5668C196.911 38.2335 196.688 37.8642 196.562 37.4589L198.415 37.01C198.498 37.1805 198.619 37.349 198.778 37.5157C198.938 37.6861 199.152 37.8263 199.42 37.9361C199.693 38.0498 200.036 38.1066 200.449 38.1066C201.032 38.1066 201.515 37.9645 201.898 37.6805C202.28 37.4002 202.472 36.938 202.472 36.2941V34.6407H202.369C202.263 34.8528 202.108 35.0706 201.903 35.2941C201.703 35.5176 201.436 35.7051 201.102 35.8566C200.773 36.0081 200.358 36.0839 199.858 36.0839C199.188 36.0839 198.58 35.9267 198.034 35.6123C197.492 35.2941 197.061 34.8206 196.739 34.1918C196.42 33.5592 196.261 32.7676 196.261 31.8168C196.261 30.8585 196.42 30.0498 196.739 29.3907C197.061 28.7278 197.494 28.2259 198.04 27.885C198.585 27.5403 199.193 27.368 199.864 27.368C200.375 27.368 200.795 27.4551 201.125 27.6293C201.458 27.7998 201.723 28.0062 201.92 28.2486C202.117 28.4873 202.267 28.7126 202.369 28.9248H202.483V27.4816H204.511V36.3509C204.511 37.0971 204.333 37.7145 203.977 38.2032C203.621 38.6918 203.134 39.0573 202.517 39.2998C201.9 39.5422 201.199 39.6634 200.415 39.6634ZM200.432 34.4702C200.867 34.4702 201.239 34.3642 201.545 34.152C201.852 33.9399 202.085 33.635 202.244 33.2373C202.403 32.8395 202.483 32.3623 202.483 31.8055C202.483 31.2562 202.403 30.7751 202.244 30.3623C202.089 29.9494 201.858 29.6293 201.551 29.402C201.248 29.171 200.875 29.0555 200.432 29.0555C199.973 29.0555 199.591 29.1748 199.284 29.4134C198.977 29.652 198.746 29.9797 198.591 30.3964C198.436 30.8092 198.358 31.2789 198.358 31.8055C198.358 32.3395 198.436 32.8073 198.591 33.2089C198.75 33.6066 198.983 33.9172 199.29 34.1407C199.6 34.3604 199.981 34.4702 200.432 34.4702ZM208.676 31.0952V36.2089H206.619V27.4816H208.585V28.9645H208.688C208.888 28.4759 209.208 28.0876 209.648 27.7998C210.091 27.5119 210.638 27.368 211.29 27.368C211.892 27.368 212.417 27.4967 212.864 27.7543C213.314 28.0119 213.663 28.385 213.909 28.8736C214.159 29.3623 214.282 29.9551 214.278 30.652V36.2089H212.222V30.9702C212.222 30.3869 212.07 29.9305 211.767 29.6009C211.468 29.2714 211.053 29.1066 210.523 29.1066C210.163 29.1066 209.843 29.1861 209.562 29.3452C209.286 29.5005 209.068 29.7259 208.909 30.0214C208.754 30.3168 208.676 30.6748 208.676 31.0952ZM220.338 36.2089V27.4816H222.395V36.2089H220.338ZM221.372 26.243C221.046 26.243 220.766 26.135 220.531 25.9191C220.296 25.6994 220.179 25.4361 220.179 25.1293C220.179 24.8187 220.296 24.5555 220.531 24.3395C220.766 24.1198 221.046 24.01 221.372 24.01C221.702 24.01 221.982 24.1198 222.213 24.3395C222.448 24.5555 222.565 24.8187 222.565 25.1293C222.565 25.4361 222.448 25.6994 222.213 25.9191C221.982 26.135 221.702 26.243 221.372 26.243ZM226.567 31.0952V36.2089H224.51V27.4816H226.476V28.9645H226.578C226.779 28.4759 227.099 28.0876 227.538 27.7998C227.982 27.5119 228.529 27.368 229.18 27.368C229.783 27.368 230.307 27.4967 230.754 27.7543C231.205 28.0119 231.554 28.385 231.8 28.8736C232.05 29.3623 232.173 29.9551 232.169 30.652V36.2089H230.112V30.9702C230.112 30.3869 229.961 29.9305 229.658 29.6009C229.358 29.2714 228.944 29.1066 228.413 29.1066C228.054 29.1066 227.733 29.1861 227.453 29.3452C227.177 29.5005 226.959 29.7259 226.8 30.0214C226.644 30.3168 226.567 30.6748 226.567 31.0952ZM240.03 36.2089L237.564 27.4816H239.661L241.195 33.618H241.274L242.842 27.4816H244.916L246.484 33.5839H246.57L248.081 27.4816H250.183L247.712 36.2089H245.57L243.933 30.3111H243.814L242.178 36.2089H240.03ZM251.619 36.2089V27.4816H253.676V36.2089H251.619ZM252.653 26.243C252.328 26.243 252.047 26.135 251.812 25.9191C251.578 25.6994 251.46 25.4361 251.46 25.1293C251.46 24.8187 251.578 24.5555 251.812 24.3395C252.047 24.1198 252.328 24.01 252.653 24.01C252.983 24.01 253.263 24.1198 253.494 24.3395C253.729 24.5555 253.847 24.8187 253.847 25.1293C253.847 25.4361 253.729 25.6994 253.494 25.9191C253.263 26.135 252.983 26.243 252.653 26.243ZM260.149 27.4816V29.0725H255.132V27.4816H260.149ZM256.371 25.3907H258.428V33.5839C258.428 33.8604 258.469 34.0725 258.553 34.2202C258.64 34.3642 258.753 34.4627 258.893 34.5157C259.034 34.5687 259.189 34.5952 259.359 34.5952C259.488 34.5952 259.606 34.5858 259.712 34.5668C259.821 34.5479 259.905 34.5308 259.962 34.5157L260.308 36.1236C260.198 36.1615 260.041 36.2032 259.837 36.2486C259.636 36.2941 259.39 36.3206 259.098 36.3282C258.583 36.3433 258.119 36.2657 257.706 36.0952C257.293 35.921 256.965 35.652 256.723 35.2884C256.484 34.9248 256.367 34.4702 256.371 33.9248V25.3907ZM264.114 31.0952V36.2089H262.057V24.5725H264.068V28.9645H264.17C264.375 28.4721 264.691 28.0839 265.119 27.7998C265.551 27.5119 266.1 27.368 266.767 27.368C267.373 27.368 267.902 27.4948 268.352 27.7486C268.803 28.0024 269.152 28.3736 269.398 28.8623C269.648 29.3509 269.773 29.9475 269.773 30.652V36.2089H267.716V30.9702C267.716 30.3831 267.564 29.9267 267.261 29.6009C266.962 29.2714 266.542 29.1066 266 29.1066C265.636 29.1066 265.311 29.1861 265.023 29.3452C264.739 29.5005 264.515 29.7259 264.352 30.0214C264.193 30.3168 264.114 30.6748 264.114 31.0952ZM282.253 27.7714C282.2 27.2752 281.976 26.8888 281.582 26.6123C281.192 26.3358 280.685 26.1975 280.06 26.1975C279.62 26.1975 279.243 26.2638 278.929 26.3964C278.615 26.5289 278.374 26.7089 278.207 26.9361C278.041 27.1634 277.955 27.4229 277.952 27.7145C277.952 27.957 278.007 28.1672 278.116 28.3452C278.23 28.5233 278.384 28.6748 278.577 28.7998C278.77 28.921 278.984 29.0233 279.219 29.1066C279.454 29.1899 279.69 29.26 279.929 29.3168L281.02 29.5895C281.459 29.6918 281.882 29.8301 282.287 30.0043C282.696 30.1786 283.062 30.3983 283.384 30.6634C283.709 30.9286 283.967 31.2486 284.156 31.6236C284.346 31.9986 284.44 32.438 284.44 32.9418C284.44 33.6236 284.266 34.224 283.918 34.743C283.569 35.2581 283.065 35.6615 282.406 35.9532C281.751 36.2411 280.957 36.385 280.026 36.385C279.12 36.385 278.334 36.2448 277.668 35.9645C277.005 35.6842 276.486 35.2752 276.111 34.7373C275.74 34.1994 275.539 33.5441 275.509 32.7714H277.582C277.613 33.1767 277.738 33.5138 277.957 33.7827C278.177 34.0517 278.463 34.2524 278.815 34.385C279.171 34.5176 279.569 34.5839 280.009 34.5839C280.467 34.5839 280.868 34.5157 281.213 34.3793C281.562 34.2392 281.834 34.046 282.031 33.7998C282.228 33.5498 282.329 33.2581 282.332 32.9248C282.329 32.6217 282.24 32.3717 282.065 32.1748C281.891 31.974 281.647 31.8073 281.332 31.6748C281.022 31.5384 280.658 31.4172 280.241 31.3111L278.918 30.9702C277.959 30.724 277.202 30.3509 276.645 29.8509C276.092 29.3471 275.815 28.6786 275.815 27.8452C275.815 27.1596 276.001 26.5592 276.372 26.0441C276.747 25.5289 277.257 25.1293 277.901 24.8452C278.545 24.5573 279.274 24.4134 280.088 24.4134C280.914 24.4134 281.637 24.5573 282.259 24.8452C282.884 25.1293 283.374 25.5251 283.73 26.0327C284.086 26.5365 284.27 27.1161 284.281 27.7714H282.253ZM292.643 27.7714C292.59 27.2752 292.367 26.8888 291.973 26.6123C291.583 26.3358 291.075 26.1975 290.45 26.1975C290.011 26.1975 289.634 26.2638 289.32 26.3964C289.005 26.5289 288.765 26.7089 288.598 26.9361C288.431 27.1634 288.346 27.4229 288.342 27.7145C288.342 27.957 288.397 28.1672 288.507 28.3452C288.621 28.5233 288.774 28.6748 288.967 28.7998C289.161 28.921 289.375 29.0233 289.609 29.1066C289.844 29.1899 290.081 29.26 290.32 29.3168L291.411 29.5895C291.85 29.6918 292.272 29.8301 292.678 30.0043C293.087 30.1786 293.452 30.3983 293.774 30.6634C294.1 30.9286 294.357 31.2486 294.547 31.6236C294.736 31.9986 294.831 32.438 294.831 32.9418C294.831 33.6236 294.657 34.224 294.308 34.743C293.96 35.2581 293.456 35.6615 292.797 35.9532C292.142 36.2411 291.348 36.385 290.416 36.385C289.511 36.385 288.725 36.2448 288.058 35.9645C287.395 35.6842 286.876 35.2752 286.501 34.7373C286.13 34.1994 285.929 33.5441 285.899 32.7714H287.973C288.003 33.1767 288.128 33.5138 288.348 33.7827C288.568 34.0517 288.854 34.2524 289.206 34.385C289.562 34.5176 289.96 34.5839 290.399 34.5839C290.857 34.5839 291.259 34.5157 291.604 34.3793C291.952 34.2392 292.225 34.046 292.422 33.7998C292.619 33.5498 292.719 33.2581 292.723 32.9248C292.719 32.6217 292.63 32.3717 292.456 32.1748C292.282 31.974 292.037 31.8073 291.723 31.6748C291.412 31.5384 291.049 31.4172 290.632 31.3111L289.308 30.9702C288.35 30.724 287.592 30.3509 287.036 29.8509C286.482 29.3471 286.206 28.6786 286.206 27.8452C286.206 27.1596 286.392 26.5592 286.763 26.0441C287.138 25.5289 287.647 25.1293 288.291 24.8452C288.935 24.5573 289.664 24.4134 290.479 24.4134C291.304 24.4134 292.028 24.5573 292.649 24.8452C293.274 25.1293 293.765 25.5251 294.121 26.0327C294.477 26.5365 294.661 27.1161 294.672 27.7714H292.643ZM307.108 30.3907C307.108 31.6445 306.873 32.7183 306.403 33.6123C305.938 34.5024 305.301 35.1842 304.494 35.6577C303.691 36.1312 302.78 36.368 301.761 36.368C300.742 36.368 299.83 36.1312 299.023 35.6577C298.22 35.1805 297.583 34.4967 297.114 33.6066C296.648 32.7127 296.415 31.6407 296.415 30.3907C296.415 29.1369 296.648 28.0649 297.114 27.1748C297.583 26.2808 298.22 25.5971 299.023 25.1236C299.83 24.6501 300.742 24.4134 301.761 24.4134C302.78 24.4134 303.691 24.6501 304.494 25.1236C305.301 25.5971 305.938 26.2808 306.403 27.1748C306.873 28.0649 307.108 29.1369 307.108 30.3907ZM304.989 30.3907C304.989 29.5081 304.85 28.7638 304.574 28.1577C304.301 27.5479 303.922 27.0877 303.438 26.777C302.953 26.4627 302.394 26.3055 301.761 26.3055C301.129 26.3055 300.57 26.4627 300.085 26.777C299.6 27.0877 299.22 27.5479 298.943 28.1577C298.67 28.7638 298.534 29.5081 298.534 30.3907C298.534 31.2733 298.67 32.0195 298.943 32.6293C299.22 33.2354 299.6 33.6956 300.085 34.01C300.57 34.3206 301.129 34.4759 301.761 34.4759C302.394 34.4759 302.953 34.3206 303.438 34.01C303.922 33.6956 304.301 33.2354 304.574 32.6293C304.85 32.0195 304.989 31.2733 304.989 30.3907Z" fill="#171717"/>
</svg>
